<svg width="352" height="352" viewBox="0 0 352 352" fill="none" xmlns="http://www.w3.org/2000/svg">
<path d="M301.54 157.11C230.9 175.29 175.28 230.91 157.1 301.55C152.97 317.61 150.77 334.45 150.77 351.81H201.03C201.03 334.19 204.05 317.27 209.61 301.55C224.75 258.71 258.7 224.76 301.54 209.62C317.26 204.06 334.18 201.04 351.8 201.04V150.78C334.45 150.77 317.61 152.97 301.54 157.11Z" fill="black"/>
<path d="M209.61 50.26C204.05 34.54 201.03 17.62 201.03 0H150.77C150.77 17.62 147.75 34.54 142.19 50.26C127.05 93.1 93.1 127.05 50.26 142.19C34.54 147.75 17.62 150.77 0 150.77V201.03C17.62 201.03 34.54 204.05 50.26 209.61C90.09 223.69 122.22 254.04 138.71 292.66C144.39 272.15 152.88 252.85 163.8 235.23C146.4 210.83 123.67 190.51 97.33 175.91C130.32 157.62 157.62 130.32 175.91 97.33C190.52 123.67 210.83 146.4 235.23 163.8C252.85 152.88 272.15 144.39 292.66 138.71C254.04 122.21 223.69 90.09 209.61 50.26Z" fill="black"/>
</svg>
